<?xml version="1.0" standalone="no"?>
<!DOCTYPE svg PUBLIC "-//W3C//DTD SVG 20010904//EN"
 "http://www.w3.org/TR/2001/REC-SVG-20010904/DTD/svg10.dtd">
<svg version="1.0" xmlns="http://www.w3.org/2000/svg"
 width="45.000000pt" height="45.000000pt" viewBox="0 0 512.000000 512.000000"
 preserveAspectRatio="xMidYMid meet">

<g transform="translate(0.000000,512.000000) scale(0.100000,-0.100000)"
fill="#ffffff" stroke="none">
<path d="M519 5097 c-24 -13 -57 -43 -74 -66 l-30 -43 0 -2241 c0 -2165 1
-2244 19 -2297 69 -205 218 -355 416 -423 64 -21 76 -22 669 -25 450 -2 612 0
633 9 49 20 70 81 46 134 -25 56 -19 55 -632 55 -380 0 -582 4 -618 11 -127
27 -242 121 -299 242 l-34 72 -3 333 -3 334 78 -79 c128 -130 283 -220 456
-266 l82 -22 1335 0 1335 0 85 23 c170 45 325 135 453 265 l78 79 -3 -334 -3
-333 -34 -72 c-57 -121 -172 -215 -299 -242 -36 -7 -238 -11 -618 -11 -469 0
-570 -2 -593 -14 -66 -35 -66 -137 0 -172 42 -21 1152 -20 1254 1 229 48 416
229 475 461 20 76 20 120 20 2284 l0 2207 -23 44 c-13 24 -43 58 -66 74 l-43
30 -2007 3 -2008 2 -44 -23z m3991 -927 l0 -750 -1950 0 -1950 0 0 750 0 750
1950 0 1950 0 0 -750z m-2 -1737 l-3 -788 -24 -70 c-46 -139 -98 -222 -201
-326 -85 -86 -107 -102 -200 -147 -182 -87 -81 -82 -1522 -82 -1097 0 -1282 2
-1338 15 -276 64 -483 254 -578 530 l-27 80 -3 788 -3 787 1951 0 1951 0 -3
-787z"/>
<path d="M1800 2921 c-234 -79 -621 -227 -648 -247 -18 -14 -41 -43 -52 -64
-38 -74 -30 -109 96 -456 63 -176 125 -334 136 -352 11 -18 39 -43 62 -57 79
-46 111 -40 481 94 241 88 336 127 358 148 38 36 66 98 67 144 0 39 -215 644
-253 712 -44 79 -148 112 -247 78z m189 -482 c54 -151 102 -281 105 -289 5
-13 -53 -37 -294 -124 -165 -60 -302 -107 -304 -105 -11 12 -216 592 -211 597
3 3 137 54 298 112 195 71 294 102 299 95 4 -6 52 -135 107 -286z"/>
<path d="M2799 2891 c-39 -40 -40 -89 -1 -132 67 -75 186 -12 167 88 -13 73
-111 99 -166 44z"/>
<path d="M3580 2583 c-270 -94 -635 -231 -667 -249 -55 -32 -98 -114 -91 -177
5 -38 214 -629 243 -687 18 -35 64 -77 100 -90 68 -26 109 -16 440 105 176 63
336 127 356 140 46 30 79 96 79 158 0 35 -30 129 -114 361 -63 172 -121 327
-130 344 -36 69 -148 119 -216 95z m154 -499 c59 -163 106 -298 104 -300 -14
-13 -592 -214 -598 -207 -9 9 -219 587 -215 591 6 7 572 211 586 211 12 1 43
-74 123 -295z"/>
<path d="M2214 1551 c-98 -42 -72 -191 34 -191 57 1 102 47 102 104 0 56 -83
109 -136 87z"/>
<path d="M2511 186 c-87 -48 -50 -186 49 -186 51 0 100 49 100 99 0 75 -83
124 -149 87z"/>
</g>
</svg>
